<svg width="139" height="20" fill="none" xmlns="http://www.w3.org/2000/svg">
  <path d="M131.66 0c-4.61 0-7.35 3.28-7.35 7.25 0 3.98 2.74 7.26 7.35 7.26 4.6 0 7.34-3.26 7.34-7.26S136.26 0 131.66 0Zm0 12.78c-3.3 0-5.36-2.39-5.36-5.53 0-3.13 2.06-5.52 5.36-5.52 3.3 0 5.35 2.41 5.35 5.52 0 3.11-2.06 5.53-5.35 5.53ZM66.52 1.73c2.57 0 4.4 1.78 4.51 3.63h1.92C72.83 2.66 70.5 0 66.61 0c-4.7 0-7.37 3.3-7.37 7.28 0 3.9 2.53 7.23 7.49 7.23a8 8 0 0 0 6.22-2.7l-1.26-1.13a7.03 7.03 0 0 1-4.96 2.1c-3.72 0-5.48-2.43-5.48-5.5 0-3.27 2.04-5.54 5.27-5.54M87.87.47v5.87c0 4.2-2.5 6.44-5.3 6.44-2.31 0-3.58-1.66-3.58-4.45V.47h-4.54v1.64h2.62V8.8c0 3.32 1.9 5.7 5.35 5.7 2.7 0 4.52-1.37 5.43-3.34v2.88h1.92V.47h-1.9ZM121.9.47l-4.92 11.63L111.95.47h-3.75v1.64h2.38l5.36 12.42c-.8 1.94-2.08 3.14-3.7 3.14a3.3 3.3 0 0 1-1.58-.33v1.75c.6.22 1.23.32 1.87.3 2.31 0 3.9-1.35 5-3.88L123.97.47h-2.06ZM98.79 2.93V.47h-5.76v1.64h3.84v10.3h-3.84v1.63h10.43V12.4H98.8V6.04c.38-2.22 2.33-4.28 4.75-4.28a6 6 0 0 1 2.5.44V.47a4.38 4.38 0 0 0-2.08-.47 6.06 6.06 0 0 0-5.17 2.93ZM50.63 2.93V.47h-5.76v1.64h3.84v10.3h-3.84v1.63H55.3V12.4h-4.67V6.04c.35-2.22 2.34-4.28 4.77-4.28.85-.03 1.7.12 2.48.44V.47a4.5 4.5 0 0 0-2.1-.47 6.11 6.11 0 0 0-5.15 2.93ZM24.38 12.4V5.52c0-3.1-2-5.52-4.98-5.52-3 0-4.43 1.9-5.1 3.41A4.87 4.87 0 0 0 9.56.01a5.18 5.18 0 0 0-4.8 2.94V.47H0v1.64h2.86v11.93h1.91V6.06c.2-1.57 1.52-4.3 4.45-4.3 2.13 0 3.45 1.2 3.45 4.32v7.96h1.92V5.99c.26-1.52 1.52-4.23 4.42-4.23 2.16 0 3.44 1.2 3.44 4.32v7.96h4.1V12.4h-2.17ZM42.6 7.25c0-4-2.62-7.25-7.14-7.25-4.51 0-7.23 3.3-7.23 7.28 0 4.07 2.62 7.23 7.49 7.23 3.03 0 5.2-1.48 6.06-2.62l-1.26-1.14a6.4 6.4 0 0 1-4.93 2.02 5.07 5.07 0 0 1-5.3-4.9h12.28a6 6 0 0 0 .03-.62Zm-12.29-1a5.04 5.04 0 0 1 5.15-4.52 4.97 4.97 0 0 1 5.13 4.52H30.3Z" fill="#000"/>
</svg>
